<?xml version="1.0" encoding="UTF-8" standalone="no"?>
<!-- Created with Inkscape (http://www.inkscape.org/) -->

<svg
   xmlns:dc="http://purl.org/dc/elements/1.1/"
   xmlns:cc="http://creativecommons.org/ns#"
   xmlns:rdf="http://www.w3.org/1999/02/22-rdf-syntax-ns#"
   xmlns:svg="http://www.w3.org/2000/svg"
   xmlns="http://www.w3.org/2000/svg"
   xmlns:sodipodi="http://sodipodi.sourceforge.net/DTD/sodipodi-0.dtd"
   xmlns:inkscape="http://www.inkscape.org/namespaces/inkscape"
   width="584pt"
   height="584pt"
   viewBox="0 0 206.02221 206.0222"
   version="1.1"
   id="svg8"
   inkscape:version="0.92.3 (2405546, 2018-03-11)"
   sodipodi:docname="clear.svg"
   inkscape:export-filename="C:\Users\zjx8rj\Desktop\clear.png"
   inkscape:export-xdpi="63.123291"
   inkscape:export-ydpi="63.123291">
  <defs
     id="defs2" />
  <sodipodi:namedview
     id="base"
     pagecolor="#ffffff"
     bordercolor="#666666"
     borderopacity="1.0"
     inkscape:pageopacity="0.0"
     inkscape:pageshadow="2"
     inkscape:zoom="0.24748737"
     inkscape:cx="107.20689"
     inkscape:cy="-1779.2454"
     inkscape:document-units="mm"
     inkscape:current-layer="layer1"
     showgrid="false"
     units="pt"
     fit-margin-top="100"
     fit-margin-bottom="100"
     fit-margin-left="100"
     fit-margin-right="100"
     inkscape:window-width="1920"
     inkscape:window-height="1001"
     inkscape:window-x="-9"
     inkscape:window-y="-9"
     inkscape:window-maximized="1" />
  <metadata
     id="metadata5">
    <rdf:RDF>
      <cc:Work
         rdf:about="">
        <dc:format>image/svg+xml</dc:format>
        <dc:type
           rdf:resource="http://purl.org/dc/dcmitype/StillImage" />
        <dc:title></dc:title>
      </cc:Work>
    </rdf:RDF>
  </metadata>
  <g
     inkscape:label="Layer 1"
     inkscape:groupmode="layer"
     id="layer1"
     transform="translate(133.85397,-68.500791)">
    <path
       id="path4518"
       d="m -19.201188,213.84524 h 6.35 a 3.175,3.175 0 0 0 3.1750003,-3.175 v -57.15 a 3.175,3.175 0 0 0 -3.1750003,-3.175 h -6.35 a 3.175,3.175 0 0 0 -3.175,3.175 v 57.15 a 3.175,3.175 0 0 0 3.175,3.175 z m 43.391667,-88.9 H 2.3861665 L -6.6096667,109.94336 A 12.7,12.7 0 0 0 -17.505209,103.77857 H -44.1805 a 12.7,12.7 0 0 0 -10.89025,6.16479 l -9.001125,15.00188 h -21.804313 a 4.2333333,4.2333333 0 0 0 -4.233333,4.23333 v 4.23333 a 4.2333333,4.2333333 0 0 0 4.233333,4.23334 h 4.233334 v 88.9 a 12.7,12.7 0 0 0 12.7,12.7 H 7.2571465 a 12.7,12.7 0 0 0 12.7000025,-12.7 v -88.9 h 4.23333 a 4.2333333,4.2333333 0 0 0 4.23333,-4.23334 v -4.23333 a 4.2333333,4.2333333 0 0 0 -4.23333,-4.23333 z m -68.834,-7.69673 a 1.5875,1.5875 0 0 1 1.36525,-0.76994 h 24.870833 a 1.5875,1.5875 0 0 1 1.362604,0.76994 l 4.619625,7.69673 H -49.2605 Z M 7.2571465,226.54524 H -68.942854 v -88.9 H 7.2571465 Z m -56.0916675,-12.7 h 6.35 a 3.175,3.175 0 0 0 3.175,-3.175 v -57.15 a 3.175,3.175 0 0 0 -3.175,-3.175 h -6.35 a 3.175,3.175 0 0 0 -3.175,3.175 v 57.15 a 3.175,3.175 0 0 0 3.175,3.175 z"
       inkscape:connector-curvature="0"
       style="fill:currentColor;stroke-width:0.26458332" />
  </g>
</svg>
